<svg width="153" height="26" viewBox="0 0 153 26" fill="none" xmlns="http://www.w3.org/2000/svg">
<path d="M34.763 24.7638H34.5994H11.3395H11.1143L11.2653 24.5967L15.9292 19.437L15.959 19.4041H16.0034H20.9962H20.9989C22.1462 19.4041 23.4287 19.4041 24.3754 19.4537C23.959 18.7184 23.3842 17.5909 22.9398 16.6991L34.763 24.7638ZM34.763 24.7638L34.6884 24.6182L25.3904 6.46925L25.39 6.46857C25.0563 5.82924 24.6209 5.25249 24.0285 4.83566C23.4349 4.41798 22.6895 4.16498 21.7436 4.16498C19.7589 4.16498 18.3287 5.2692 17.2742 6.44818L17.2738 6.44866L1.24901 24.5976L1.10228 24.7638H1.32397H8.64875H8.69396L8.72382 24.7299L20.3454 11.522L22.9397 16.6989L34.763 24.7638ZM36.0912 4.49496H36.0483L36.0187 4.52605L31.0558 9.74575L30.8952 9.91465H31.1283H40.3969L37.8164 24.6465L37.7959 24.7638H37.9149H44.1036H44.1874L44.202 24.6812L46.8184 9.91465H53.85H53.8929L53.9225 9.88356L58.8854 4.66386L59.046 4.49496H58.8129H36.0912ZM80.5426 20.7028L80.5422 20.7023C79.5276 19.4092 78.9116 18.6913 78.3728 18.1828C82.1668 17.3615 84.7192 14.3053 84.7192 10.6846C84.7192 8.24097 83.4515 6.6877 81.6609 5.75127C79.8765 4.81813 77.5709 4.49496 75.4707 4.49496H62.615H62.5721L62.5425 4.52605L57.5796 9.74575L57.419 9.91465H57.6521H75.0521C76 9.91465 76.7406 10.0786 77.2411 10.3942C77.7352 10.7058 78.0016 11.1689 78.0016 11.7945C78.0016 12.5621 77.5783 13.1861 76.8931 13.6226C76.2063 14.0601 75.2619 14.3044 74.2449 14.3044H56.8448H56.7608L56.7463 14.3872L54.9525 24.6466L54.932 24.7638H55.051H61.2397H61.3238L61.3382 24.681L62.2506 19.4541H71.6202L75.1183 24.7191L75.148 24.7638H75.2016H83.4831H83.687L83.5622 24.6026L80.5426 20.7028ZM115.315 4.6124L115.336 4.49496H115.217H108.998H108.914L108.9 4.57752L106.897 15.8866C106.897 15.8866 106.897 15.8867 106.897 15.8868C106.646 17.2785 106.119 18.2299 105.08 18.8404C104.031 19.4561 102.448 19.7341 100.059 19.7341C97.3223 19.7341 95.5847 19.5532 94.5327 19.1192C94.01 18.9035 93.6635 18.6281 93.446 18.287C93.2283 17.9453 93.1333 17.5272 93.1333 17.0142C93.1333 16.6907 93.1626 16.3362 93.2218 15.9202C93.2218 15.9196 93.2219 15.919 93.222 15.9184L95.2544 4.61265L95.2756 4.49496H95.156H88.9673H88.8835L88.8689 4.57752L86.8658 15.8865C86.7453 16.5516 86.6848 17.1876 86.6848 17.7942C86.6848 20.2264 87.6502 22.0605 89.7048 23.2799C91.75 24.4937 94.8664 25.0938 99.1622 25.0938C103.343 25.0938 106.609 24.3347 108.967 22.8053C111.329 21.2735 112.77 18.9755 113.312 15.9218L115.315 4.6124ZM139.114 4.49496H139.078L139.051 4.51794L131.593 10.6944L126.395 4.53049L126.365 4.49496H126.319H117.768H117.546L117.693 4.66112L122.775 10.4208L122.776 10.4213C125.27 13.2085 125.995 13.9777 126.604 14.5148C125.783 15.0783 124.732 15.8545 121.323 18.5558L121.323 18.5559L113.759 24.5856L113.536 24.7638H113.822H121.505H121.54L121.568 24.7415L129.684 18.1732L135.271 24.7287L135.301 24.7638H135.347H144.077H144.3L144.152 24.5974L138.801 18.5678L138.8 18.5674C138.568 18.308 138.34 18.0527 138.117 17.8037C137.452 17.0598 136.837 16.3719 136.311 15.7956C135.681 15.1066 135.172 14.5712 134.853 14.2913C135.653 13.7219 136.773 12.8753 139.864 10.4635L139.864 10.4631L147.189 4.67341L147.415 4.49496H147.127H139.114Z" fill="#C4C4C4" stroke="#C4C4C4" stroke-width="0.2" stroke-miterlimit="10"/>
<path d="M150.848 1.77123H151.505C151.766 1.77123 151.905 1.8654 151.905 2.04648C151.905 2.30906 151.741 2.49921 151.312 2.49921H150.187L150.481 2.18773H151.396C151.498 2.18773 151.541 2.15514 151.541 2.08451C151.541 2.03562 151.503 2.01208 151.427 2.01208H150.768C150.494 2.01208 150.371 1.89618 150.371 1.72052C150.371 1.47424 150.539 1.28772 150.961 1.28772H152.01L151.714 1.60282H150.877C150.776 1.60282 150.732 1.62998 150.732 1.70241C150.732 1.75131 150.77 1.77123 150.848 1.77123Z" fill="#C4C4C4"/>
<path d="M150.848 1.77123H151.505C151.766 1.77123 151.905 1.8654 151.905 2.04648C151.905 2.30906 151.741 2.49921 151.312 2.49921H150.187L150.481 2.18773H151.396C151.498 2.18773 151.541 2.15514 151.541 2.08451C151.541 2.03562 151.503 2.01208 151.427 2.01208H150.768C150.494 2.01208 150.371 1.89618 150.371 1.72052C150.371 1.47424 150.539 1.28772 150.961 1.28772H152.01L151.714 1.60282H150.877C150.776 1.60282 150.732 1.62998 150.732 1.70241C150.732 1.75131 150.77 1.77123 150.848 1.77123Z" stroke="#C4C4C4"/>
</svg>
